name ./resultDataOpenSim/trcMotMarkerGrf/sub10/grf-05-08.mot
datacolumns 19
datarows 27
range 1.05600000 1.16000000
endheader

                time	     ground_force_vx	     ground_force_vy	     ground_force_vz	     ground_force_px	     ground_force_py	     ground_force_pz	   l_ground_force_vx	   l_ground_force_vy	   l_ground_force_vz	   l_ground_force_px	   l_ground_force_py	   l_ground_force_pz	     ground_torque_x	     ground_torque_y	     ground_torque_z	   l_ground_torque_x	   l_ground_torque_y	   l_ground_torque_z	
          1.05600000	          0.00000000	          0.00000000	          0.00000000	          0.00000000	          0.00000000	          0.00000000	         -4.22763982	        287.38011346	         24.63497266	          0.02696251	         -0.10000000	         -0.10379874	          0.00000000	          0.00000000	          0.00000000	          0.00000000	          0.15689340	          0.00000000	
          1.06000000	          0.00000000	          0.00000000	          0.00000000	          0.00000000	          0.00000000	          0.00000000	         -3.43319156	        278.69695047	         24.44199525	          0.02759137	         -0.10000000	         -0.10346357	          0.00000000	          0.00000000	          0.00000000	          0.00000000	          0.13344865	          0.00000000	
          1.06400000	          0.00000000	          0.00000000	          0.00000000	          0.00000000	          0.00000000	          0.00000000	         -2.62390176	        270.78126622	         24.18565238	          0.02835916	         -0.10000000	         -0.10305697	          0.00000000	          0.00000000	          0.00000000	          0.00000000	          0.10632319	          0.00000000	
          1.06800000	          0.00000000	          0.00000000	          0.00000000	          0.00000000	          0.00000000	          0.00000000	         -1.80411766	        263.66614579	         23.82851535	          0.02915763	         -0.10000000	         -0.10260785	          0.00000000	          0.00000000	          0.00000000	          0.00000000	          0.07269636	          0.00000000	
          1.07200000	          0.00000000	          0.00000000	          0.00000000	          0.00000000	          0.00000000	          0.00000000	         -0.97544555	        257.37330986	         23.36261492	          0.02988091	         -0.10000000	         -0.10211885	          0.00000000	          0.00000000	          0.00000000	          0.00000000	          0.03012870	          0.00000000	
          1.07600000	          0.00000000	          0.00000000	          0.00000000	          0.00000000	          0.00000000	          0.00000000	         -0.15582928	        251.87687695	         22.80290127	          0.03040239	         -0.10000000	         -0.10160989	          0.00000000	          0.00000000	          0.00000000	          0.00000000	         -0.02304817	          0.00000000	
          1.08000000	          0.00000000	          0.00000000	          0.00000000	          0.00000000	          0.00000000	          0.00000000	          0.61036228	        247.10733475	         22.17393436	          0.03062749	         -0.10000000	         -0.10113278	          0.00000000	          0.00000000	          0.00000000	          0.00000000	         -0.08757544	          0.00000000	
          1.08400000	          0.00000000	          0.00000000	          0.00000000	          0.00000000	          0.00000000	          0.00000000	          1.26961394	        243.00334046	         21.49786713	          0.03058382	         -0.10000000	         -0.10070373	          0.00000000	          0.00000000	          0.00000000	          0.00000000	         -0.16331705	          0.00000000	
          1.08800000	          0.00000000	          0.00000000	          0.00000000	          0.00000000	          0.00000000	          0.00000000	          1.78857217	        239.56348247	         20.79346290	          0.03039529	         -0.10000000	         -0.10027450	          0.00000000	          0.00000000	          0.00000000	          0.00000000	         -0.24949059	          0.00000000	
          1.09200000	          0.00000000	          0.00000000	          0.00000000	          0.00000000	          0.00000000	          0.00000000	          2.16639827	        236.84208825	         20.07903912	          0.03024952	         -0.10000000	         -0.09976448	          0.00000000	          0.00000000	          0.00000000	          0.00000000	         -0.34501050	          0.00000000	
          1.09600000	          0.00000000	          0.00000000	          0.00000000	          0.00000000	          0.00000000	          0.00000000	          2.43187511	        234.90806066	         19.36689371	          0.03025351	         -0.10000000	         -0.09913986	          0.00000000	          0.00000000	          0.00000000	          0.00000000	         -0.44879557	          0.00000000	
          1.10000000	          0.00000000	          0.00000000	          0.00000000	          0.00000000	          0.00000000	          0.00000000	          2.63847645	        233.82614610	         18.66226247	          0.03040952	         -0.10000000	         -0.09842635	          0.00000000	          0.00000000	          0.00000000	          0.00000000	         -0.55990574	          0.00000000	
          1.10400000	          0.00000000	          0.00000000	          0.00000000	          0.00000000	          0.00000000	          0.00000000	          2.85966155	        233.67395380	         17.97773905	          0.03064960	         -0.10000000	         -0.09771638	          0.00000000	          0.00000000	          0.00000000	          0.00000000	         -0.67753415	          0.00000000	
          1.10800000	          0.00000000	          0.00000000	          0.00000000	          0.00000000	          0.00000000	          0.00000000	          3.18334806	        234.57017637	         17.34531604	          0.03088985	         -0.10000000	         -0.09710786	          0.00000000	          0.00000000	          0.00000000	          0.00000000	         -0.80105269	          0.00000000	
          1.11200000	          0.00000000	          0.00000000	          0.00000000	          0.00000000	          0.00000000	          0.00000000	          3.70464980	        236.67873902	         16.81257894	          0.03106559	         -0.10000000	         -0.09659640	          0.00000000	          0.00000000	          0.00000000	          0.00000000	         -0.93028863	          0.00000000	
          1.11600000	          0.00000000	          0.00000000	          0.00000000	          0.00000000	          0.00000000	          0.00000000	          4.51743064	        240.16527291	         16.42794518	          0.03113570	         -0.10000000	         -0.09611635	          0.00000000	          0.00000000	          0.00000000	          0.00000000	         -1.06599052	          0.00000000	
          1.12000000	          0.00000000	          0.00000000	          0.00000000	          0.00000000	          0.00000000	          0.00000000	          5.70648788	        245.12232747	         16.22362294	          0.03111004	         -0.10000000	         -0.09560542	          0.00000000	          0.00000000	          0.00000000	          0.00000000	         -1.21022100	          0.00000000	
          1.12400000	          0.00000000	          0.00000000	          0.00000000	          0.00000000	          0.00000000	          0.00000000	          7.34312618	        251.52065998	         16.20285675	          0.03101383	         -0.10000000	         -0.09502434	          0.00000000	          0.00000000	          0.00000000	          0.00000000	         -1.36637464	          0.00000000	
          1.12800000	          0.00000000	          0.00000000	          0.00000000	          0.00000000	          0.00000000	          0.00000000	          9.48132934	        259.25561564	         16.33131587	          0.03089886	         -0.10000000	         -0.09435566	          0.00000000	          0.00000000	          0.00000000	          0.00000000	         -1.53868065	          0.00000000	
          1.13200000	          0.00000000	          0.00000000	          0.00000000	          0.00000000	          0.00000000	          0.00000000	         12.14826623	        268.25750983	         16.53603956	          0.03088767	         -0.10000000	         -0.09358681	          0.00000000	          0.00000000	          0.00000000	          0.00000000	         -1.73130855	          0.00000000	
          1.13600000	          0.00000000	          0.00000000	          0.00000000	          0.00000000	          0.00000000	          0.00000000	         15.33395495	        278.53998045	         16.72672806	          0.03104729	         -0.10000000	         -0.09274182	          0.00000000	          0.00000000	          0.00000000	          0.00000000	         -1.94739385	          0.00000000	
          1.14000000	          0.00000000	          0.00000000	          0.00000000	          0.00000000	          0.00000000	          0.00000000	         18.98996841	        290.15366693	         16.83967820	          0.03131177	         -0.10000000	         -0.09189084	          0.00000000	          0.00000000	          0.00000000	          0.00000000	         -2.18834137	          0.00000000	
          1.14400000	          0.00000000	          0.00000000	          0.00000000	          0.00000000	          0.00000000	          0.00000000	         23.03522291	        303.12535619	         16.87242341	          0.03156367	         -0.10000000	         -0.09107478	          0.00000000	          0.00000000	          0.00000000	          0.00000000	         -2.45366055	          0.00000000	
          1.14800000	          0.00000000	          0.00000000	          0.00000000	          0.00000000	          0.00000000	          0.00000000	         27.36402858	        317.44747088	         16.87530676	          0.03174038	         -0.10000000	         -0.09026826	          0.00000000	          0.00000000	          0.00000000	          0.00000000	         -2.74138096	          0.00000000	
          1.15200000	          0.00000000	          0.00000000	          0.00000000	          0.00000000	          0.00000000	          0.00000000	         31.86126950	        333.11627045	         16.90671513	          0.03188994	         -0.10000000	         -0.08941788	          0.00000000	          0.00000000	          0.00000000	          0.00000000	         -3.04883498	          0.00000000	
          1.15600000	          0.00000000	          0.00000000	          0.00000000	          0.00000000	          0.00000000	          0.00000000	         36.42236643	        350.17064591	         16.99770096	          0.03208985	         -0.10000000	         -0.08851334	          0.00000000	          0.00000000	          0.00000000	          0.00000000	         -3.37343428	          0.00000000	
          1.16000000	          0.00000000	          0.00000000	          0.00000000	          0.00000000	          0.00000000	          0.00000000	         40.96840790	        368.68350043	         17.15745631	          0.03235480	         -0.10000000	         -0.08758880	          0.00000000	          0.00000000	          0.00000000	          0.00000000	         -3.71317220	          0.00000000	
